<?xml version="1.0" encoding="UTF-8" standalone="no"?>
<svg
   version="1.1"
   width="2022.5835"
   height="425.2067"
   id="svg10"
   viewBox="0 0 2022.5835 425.2067"
   sodipodi:docname="eea8f09e52f498e2c5611f37a54be47d.cdr"
   xmlns:inkscape="http://www.inkscape.org/namespaces/inkscape"
   xmlns:sodipodi="http://sodipodi.sourceforge.net/DTD/sodipodi-0.dtd"
   xmlns="http://www.w3.org/2000/svg"
   xmlns:svg="http://www.w3.org/2000/svg">
  <defs
     id="defs14" />
  <sodipodi:namedview
     id="namedview12"
     pagecolor="#ffffff"
     bordercolor="#666666"
     borderopacity="1.0"
     inkscape:pageshadow="2"
     inkscape:pageopacity="0.0"
     inkscape:pagecheckerboard="0" />
  <path
     d="m 1927.5503,107.06599 c 9.1445,-4.5409 20.8255,-4.741 29.4862,1.0394 5.5401,3.8897 9.7787,9.7903 11.4472,16.35 0.067,5.5403 1.1015,11.5191 -1.5018,16.6603 -0.9678,2.4599 -2.336,4.7191 -3.5875,7.0404 2.2694,-0.11 5.2395,-0.9411 6.8417,1.23 2.7532,11.2385 3.4372,23.1199 0.8844,34.4687 -1.7689,9.61 -3.6213,19.5205 -8.811,27.961 -3.8545,6.4094 -6.8918,13.5099 -12.4151,18.7095 -5.2731,5.1196 -10.196,10.6596 -16.2366,14.9 -6.9418,5.9406 -14.5012,11.1402 -22.4442,15.6407 -4.589,2.6498 -9.9788,4.1086 -13.8002,7.9098 -5.123,6.2192 -6.9584,14.2892 -10.6129,21.3293 -1.4352,2.8202 -2.6368,5.7404 -3.7715,8.6907 10.2127,-1.4099 20.2249,-5.6503 30.7545,-3.9515 6.391,1.4602 13.1494,2.0308 18.9564,5.3816 5.8405,3.2891 11.5144,7.329 15.2354,13.0394 2.7034,3.6493 4.6057,7.8194 7.359,11.4505 1.3516,0.2104 2.3196,-0.9011 3.3375,-1.6404 12.799,-11.7493 30.4872,-19.7305 48.1088,-16.9905 6.241,2.0809 11.8312,5.9604 15.8029,11.2402 -15.1019,12.2 -30.1536,24.41 -45.2387,36.57 -8.9445,6.8502 -17.2545,14.5004 -26.566,20.8199 -6.825,-5.2395 -11.7145,-12.6295 -19.0401,-17.2295 -8.744,-6.0503 -18.1556,-11.6504 -28.6684,-13.9502 -7.5257,-2.3204 -15.5189,-1.54 -23.2784,-1.4601 -17.288,2.6498 -32.5066,12.4098 -45.6727,23.5004 -7.9764,5.7498 -15.8695,11.6495 -24.1628,16.9197 -10.2625,6.69 -21.1425,13.0598 -33.3575,15.1897 -7.2757,0.6199 -14.4012,2.7502 -21.7435,2.3499 -6.0908,0.4303 -11.931,-1.3994 -17.8718,-2.2802 -8.21,-1.3498 -15.3686,-5.919 -22.2605,-10.3198 -15.8695,-11.8199 -24.1628,-31.1697 -27.4504,-50.1896 -0.5505,-3.1196 -0.4672,-6.9191 -3.2539,-9.0202 -3.7545,-1.8805 -8.1267,-1.44 -12.1315,-2.4196 -9.4949,-2.1694 -19.6741,-4.6406 -26.666,-11.8996 -5.1897,-4.6907 -8.911,-11.4604 -8.1766,-18.621 -0.6843,-7.6394 1.4851,-15.0801 4.6891,-21.9402 1.0344,-2.9285 4.3384,-1.5404 6.391,-0.6792 18.7231,8.5105 37.8632,16.0597 56.5693,24.62 5.5735,3.0989 11.8811,4.4808 17.5382,7.4693 3.3707,1.8406 7.1587,2.7601 10.6297,4.4604 2.7034,1.7005 2.2028,5.3299 2.5197,8.0798 0.267,6.3896 2.8536,12.3404 5.6903,17.97 4.4889,10.1001 15.9029,16.2405 26.7828,15.3201 9.0445,0.8402 17.2378,-4.8002 22.8779,-11.37 7.8097,-10.9497 11.0137,-24.2796 13.9671,-37.1903 0.7509,-6.9302 2.9537,-13.7084 2.4197,-20.7505 0.7509,-12.9991 -4.4388,-26.9796 -15.3853,-34.569 -6.4248,-2.9203 -13.6837,-4.6605 -20.7423,-3.8795 -5.8237,1.2396 -11.2303,3.7995 -16.4701,6.4995 -1.9857,1.0695 -4.0884,-0.3203 -6.0406,-0.7109 0.2001,5.9706 0.684,12.2216 -2.0027,17.7701 -4.8892,10.1809 -16.3366,17.081 -27.6837,15.6209 -8.0601,-1.0298 -16.8205,-4.8294 -20.4752,-12.5606 -1.4851,-3.2105 -3.4042,-6.4494 -3.2539,-10.1089 0.1,-4.9612 -0.7509,-10.241 1.3682,-14.9001 3.9382,-9.9705 14.3176,-17.4512 25.2142,-16.8505 -1.6186,-1.6104 -4.0881,-2.9103 -4.5054,-5.2999 4.1383,-6.3292 9.328,-12.1499 15.8695,-16.0696 6.0908,-3.9099 13.1661,-5.8303 20.1748,-7.3205 5.2063,-0.631 10.4626,-0.3507 15.7192,-0.3405 28.5015,3.7313 54.8337,16.42 82.9681,21.82 6.7584,0 13.4833,2.2913 20.2082,0.5105 8.4268,0.0703 16.2533,-3.2689 24.1628,-5.7401 6.4247,-2.3196 12.4486,-6.2195 16.5705,-11.7695 6.2076,-8.0699 8.4937,-18.3209 10.1455,-28.1596 0.3172,-5.8303 0.1003,-11.691 0.084,-17.5315 2.2192,-0.5689 4.3886,-1.3597 6.5078,-2.2994 -4.5222,-3.1204 -9.2778,-6.3593 -11.564,-11.5591 -3.6045,-6.1609 -3.3877,-13.5499 -2.5197,-20.38 1.9188,-6.6714 6.0072,-13.0008 12.0813,-16.5801 z m -96.4681,-9.081404 c 11.8811,-0.5289 24.2798,-0.4187 35.4934,3.731204 3.4543,4.8793 3.9549,11.3891 7.8262,16.0898 3.1039,-0.5505 6.2243,-1.1098 9.4283,-0.9896 8.3937,0.1202 16.7873,-0.3404 25.181,0.0703 2.5696,1.1996 1.2515,4.5887 1.6186,6.8199 -9.3614,6.4797 -20.0078,10.8198 -29.5362,17.0393 2.5365,5.9587 5.7402,12.0096 5.5401,18.6795 -0.1335,6.5214 0.801,13.2913 -1.6353,19.5106 -1.719,6.6396 -5.5735,12.5002 -10.5798,17.1192 -4.6556,5.2713 -10.8966,8.8909 -17.5714,10.91 -5.807,2.041 -12.0314,1.1214 -18.0221,1.3 -6.4579,0.2803 -12.4152,-2.6498 -18.072,-5.3799 -12.6323,-6.1293 -19.7076,-19.9494 -21.5099,-33.3794 -0.4671,-3.3006 0.5006,-6.83 -0.6672,-9.9904 -4.4056,-6.5897 -7.1757,-14.059 -10.9301,-20.999 -0.9513,-2.4999 -3.1706,-5.0412 -2.1527,-7.8214 3.3208,-8.9994 9.6784,-16.5985 17.0876,-22.5692 8.0932,-6.3694 18.4059,-9.159504 28.5015,-10.140904 z m 135.0153,-63.199 c -7.092,6.9103 -15.2019,12.729 -21.86,20.0795 -3.1039,3.0606 -6.8918,7.4809 -11.7646,5.6404 -7.8928,-3.9198 -15.3519,-8.699 -23.195,-12.7205 -4.7725,-2.3196 -8.9777,-5.849 -14.2008,-7.179 0.167,2.0293 0.4507,4.0901 1.2351,5.9992 3.6042,9.51 6.5914,19.2402 10.0788,28.7901 1.018,2.3797 1.0347,6.6399 4.489,6.63 12.4985,-2.8704 25.2808,-4.3203 37.813,-7.119 9.7285,-1.4317 19.4069,-3.3205 29.0688,-5.2112 0.367,-0.3104 1.0848,-0.9295 1.4519,-1.2498 0.5173,-10.9703 0,-21.9804 0.2168,-32.9706 -0.1669,-4.0799 0.6843,-8.4186 -1.2348,-12.2099 -4.7225,3.0807 -8.2601,7.4809 -12.0982,11.5208 z m -20.742,-14.5995 c -8.2434,1.6786 -16.804,1.4201 -24.8136,4.14 -6.5081,1.1097 -13.0995,1.5703 -19.5741,2.8403 2.5866,2.2595 5.6069,3.8797 8.6774,5.3798 8.1598,4.4388 16.3032,8.8793 24.3462,13.5298 4.7894,-4.3801 9.1114,-9.2611 14.1843,-13.3311 5.6067,-5.2197 12.0481,-9.6584 16.4869,-16.0097 -6.408,1.3501 -12.9325,2.0109 -19.3071,3.4509 z m 33.2073,-19.35049956 c 3.4543,-0.951 7.1754,-1.0794 10.713,-0.4405 2.52,1.33999996 4.1386,4.15019996 3.9215,7.02029996 -0.1168,23.2502996 0.1669,46.5102996 -0.05,69.7603996 -1.4185,3.99 -6.3579,5.6202 -10.2626,5.8206 -24.7136,4.6089 -49.5439,8.7191 -74.2243,13.6083 -2.9036,0.3903 -6.3579,0.9011 -8.7106,-1.2498 -3.104,-2.3397 -3.5042,-6.4797 -4.856,-9.8504 -3.7378,-9.7186 -6.9418,-19.639 -10.2793,-29.4996 -3.0702,-9.7503 -7.3423,-19.0882 -9.9956,-28.9587 -0.6675,-2.6399 -0.9343,-6.141 1.7023,-7.8313 5.2395,-3.6694 11.9644,-2.77 17.8718,-4.4688 11.1303,-1.33 22.0604,-4.0499 33.2073,-5.1111996 12.6153,-2.8102 25.4812,-4.0785 38.13,-6.69 4.2219,-1.0094 8.6607,-0.7192 12.8324,-2.10929996 z"
     style="fill:#feac01;fill-rule:evenodd"
     id="path2" />
  <path
     d="m 849.8407,424.28179 4.471,-21.314 -17.0356,-33.8785 h 7.9526 l 8.1709,16.0594 c 1.7985,3.5073 3.5331,7.2586 5.2287,11.2541 1.7986,-3.3531 4.3424,-7.0274 7.5929,-11.0359 l 12.886,-16.2776 h 8.8132 l -26.414,34.444 -4.3427,20.7485 z m 29.4335,-15.1985 c 0,-7.7857 2.2997,-14.235 6.8862,-19.3482 3.7899,-4.2012 8.7491,-6.3082 14.9029,-6.3082 4.805,0 8.685,1.5032 11.6399,4.5096 2.9421,3.0062 4.4195,7.066 4.4195,12.1663 0,4.5868 -0.925,8.8521 -2.7879,12.7962 -1.8502,3.9441 -4.4966,6.9761 -7.9141,9.0703 -3.4302,2.107 -7.0276,3.1603 -10.8175,3.1603 -3.1091,0 -5.9355,-0.6678 -8.4793,-1.9913 -2.5566,-1.3232 -4.4966,-3.2117 -5.8326,-5.6398 -1.349,-2.4282 -2.0171,-5.2291 -2.0171,-8.4152 z m 6.7833,-0.6681 c 0,3.7644 0.9122,6.6166 2.7238,8.5563 1.8114,1.9401 4.1239,2.9166 6.9248,2.9166 1.4646,0 2.9163,-0.2957 4.3424,-0.8867 1.4388,-0.591 2.7751,-1.4774 4.0084,-2.685 1.2461,-1.2078 2.2995,-2.5823 3.1604,-4.1241 0.8736,-1.5417 1.5803,-3.1989 2.107,-4.9847 0.7838,-2.4795 1.169,-4.8563 1.169,-7.1433 0,-3.6099 -0.9122,-6.4108 -2.7363,-8.4022 -1.8374,-1.9913 -4.1369,-2.9934 -6.912,-2.9934 -2.1455,0 -4.0983,0.5139 -5.8584,1.529 -1.773,1.0148 -3.3661,2.4923 -4.7922,4.4581 -1.4261,1.9528 -2.4667,4.2267 -3.1346,6.8218 -0.6681,2.5952 -1.0023,4.9077 -1.0023,6.9376 z m 62.1816,8.6334 c -4.7922,5.3833 -9.7126,8.081 -14.7361,8.081 -3.0833,0 -5.5758,-0.8736 -7.4773,-2.6336 -1.9012,-1.7601 -2.8519,-3.9184 -2.8519,-6.4622 0,-1.6832 0.4754,-4.5609 1.4003,-8.6592 l 5.2546,-23.0996 h 6.8476 l -5.8198,25.9005 c -0.4881,2.1583 -0.7324,3.8412 -0.7324,5.036 0,1.3748 0.4626,2.454 1.4006,3.2119 0.9249,0.7708 2.2994,1.1563 4.111,1.1563 1.9401,0 3.8285,-0.4626 5.6787,-1.3876 1.8499,-0.9249 3.4429,-2.1713 4.7792,-3.7386 1.336,-1.5673 2.4282,-3.4302 3.276,-5.5757 0.5525,-1.3618 1.2076,-3.7644 1.94,-7.2074 l 3.8027,-17.3954 h 6.7706 l -8.8518,40.0068 h -6.2952 z m 39.8141,-10.5732 7.2459,-0.6939 -0.077,1.9273 c 0,2.1325 0.4881,4.0853 1.4646,5.8583 0.9763,1.7601 2.5952,3.1349 4.8433,4.0984 2.2612,0.9634 4.9334,1.4516 8.0425,1.4516 4.4067,0 7.7598,-0.9635 10.0854,-2.9036 2.3125,-1.9397 3.4687,-4.1496 3.4687,-6.6421 0,-1.7342 -0.6168,-3.3273 -1.8371,-4.7534 -1.2592,-1.4134 -4.6766,-3.3146 -10.2651,-5.73 -4.3297,-1.8757 -7.2845,-3.3145 -8.8648,-4.3168 -2.4795,-1.6317 -4.3039,-3.4045 -5.4859,-5.3317 -1.169,-1.9143 -1.76,-4.0984 -1.76,-6.5648 0,-2.8267 0.7837,-5.396 2.3383,-7.67 1.5545,-2.287 3.8284,-4.0342 6.8218,-5.229 2.9934,-1.2076 6.3723,-1.8114 10.1367,-1.8114 4.4966,0 8.2865,0.7452 11.3701,2.2482 3.0832,1.5032 5.3186,3.5073 6.7062,6.0125 1.4003,2.5053 2.0942,4.9079 2.0942,7.1819 0,0.2313 0,0.6038 0,1.1305 l -7.1688,0.5655 c 0,-1.5676 -0.1415,-2.7751 -0.4113,-3.6615 -0.5009,-1.5291 -1.2719,-2.8268 -2.3253,-3.8801 -1.0536,-1.0534 -2.4925,-1.9015 -4.3296,-2.5438 -1.8372,-0.6423 -3.8928,-0.9635 -6.1795,-0.9635 -3.9958,0 -7.1048,0.8991 -9.3274,2.7108 -1.7088,1.3875 -2.5566,3.2247 -2.5566,5.5114 0,1.362 0.3469,2.5823 1.0536,3.6487 0.6937,1.0664 1.9656,2.1198 3.7899,3.1476 1.2975,0.7325 4.3937,2.1713 9.2631,4.3296 3.9569,1.7473 6.6804,3.1349 8.1836,4.1369 2.0044,1.3363 3.5459,2.9421 4.6123,4.8305 1.0791,1.9015 1.6188,4.0471 1.6188,6.4625 0,2.9806 -0.9121,5.7299 -2.7238,8.2479 -1.8241,2.5311 -4.3424,4.4839 -7.5413,5.8584 -3.2119,1.3748 -6.8862,2.0684 -11.023,2.0684 -6.2567,0 -11.3443,-1.3617 -15.3015,-4.0725 -3.9441,-2.7108 -5.9354,-7.6056 -5.9609,-14.6588 z m 78.0352,4.2395 6.6291,0.6168 c -0.9635,3.2888 -3.1603,6.3978 -6.5908,9.3657 -3.4302,2.9548 -7.5286,4.4322 -12.282,4.4322 -2.9679,0 -5.6914,-0.6808 -8.1581,-2.0426 -2.4795,-1.3748 -4.3682,-3.3531 -5.6659,-5.9613 -1.2974,-2.6078 -1.9397,-5.5757 -1.9397,-8.9033 0,-4.3552 1.0148,-8.5819 3.0319,-12.6802 2.0299,-4.0984 4.6508,-7.1433 7.8625,-9.1347 3.2249,-1.9913 6.7065,-2.9806 10.4578,-2.9806 4.7792,0 8.595,1.4777 11.4472,4.4325 2.8522,2.9421 4.278,6.9761 4.278,12.0765 0,1.9528 -0.1797,3.9441 -0.5267,5.9998 h -29.5361 c -0.1029,0.7838 -0.1542,1.4774 -0.1542,2.107 0,3.7514 0.8609,6.6036 2.5951,8.5822 1.7218,1.9655 3.8415,2.9548 6.3337,2.9548 2.3383,0 4.6508,-0.758 6.9248,-2.287 2.2612,-1.516 4.0343,-3.7128 5.2934,-6.5778 z m -19.9009,-10.021 h 22.5346 c 0.025,-0.6937 0.039,-1.1948 0.039,-1.503 0,-3.3919 -0.8609,-5.9998 -2.5696,-7.8114 -1.7215,-1.8113 -3.9183,-2.7108 -6.6163,-2.7108 -2.9294,0 -5.5888,1.0021 -7.9912,2.9934 -2.4154,2.0044 -4.2012,5.0105 -5.396,9.0318 z m 33.3006,23.5879 8.3763,-40.0068 h 6.2184 l -1.4389,6.9888 c 2.7108,-2.7235 5.2416,-4.7148 7.6057,-5.9609 2.3638,-1.2464 4.7661,-1.876 7.2329,-1.876 3.2762,0 5.8456,0.8867 7.7085,2.6467 1.8629,1.76 2.8006,4.1111 2.8006,7.0659 0,1.4777 -0.3467,3.803 -1.0406,6.9891 l -5.4088,24.1532 h -6.7705 l 5.6143,-25.2967 c 0.5525,-2.4667 0.8351,-4.278 0.8351,-5.4601 0,-1.3232 -0.4624,-2.4023 -1.4004,-3.2247 -0.9377,-0.835 -2.2867,-1.2461 -4.0597,-1.2461 -3.5586,0 -6.7193,1.2461 -9.5071,3.7514 -2.7752,2.5053 -4.8178,6.7964 -6.1152,12.8733 l -3.8801,18.6029 z m 69.8255,-5.7943 c -3.8928,4.4325 -7.9526,6.6421 -12.1793,6.6421 -3.79,0 -6.9376,-1.4003 -9.4556,-4.1881 -2.5183,-2.7879 -3.7771,-6.8477 -3.7771,-12.1536 0,-4.8563 1.002,-9.3016 2.9934,-13.3228 1.9913,-4.0213 4.4838,-7.0277 7.4772,-9.0318 2.9934,-2.0041 5.9998,-3.0064 9.0059,-3.0064 4.9592,0 8.7106,2.3896 11.2417,7.1691 l 4.5093,-21.5067 h 6.7833 l -11.4854,55.1925 h -6.321 z m -18.6287,-10.9845 c 0,2.7751 0.2826,4.9719 0.8351,6.565 0.5524,1.6061 1.4904,2.9293 2.8264,3.9957 1.3232,1.0664 2.9163,1.5931 4.7792,1.5931 3.0963,0 5.8969,-1.6061 8.4022,-4.805 3.3661,-4.2395 5.049,-9.4944 5.049,-15.738 0,-3.1478 -0.822,-5.6146 -2.4794,-7.4001 -1.6574,-1.7731 -3.7514,-2.6595 -6.2567,-2.6595 -1.6316,0 -3.122,0.3598 -4.471,1.0919 -1.336,0.7195 -2.6723,1.9528 -3.9955,3.6874 -1.3104,1.7342 -2.4281,3.9441 -3.3276,6.6163 -0.9121,2.6853 -1.3617,5.0363 -1.3617,7.0532 z m 36.4736,16.7788 1.6189,-7.7085 h 7.7085 l -1.6574,7.7085 z m 51.3896,0 -3.3916,-55.1925 h 7.4772 l 1.2591,27.3007 c 0.051,1.3105 0.1542,4.8436 0.3212,10.6248 0.064,1.5931 0.1026,2.7238 0.1284,3.3789 -0.038,0.4241 -0.026,1.696 0.026,3.79 3.0447,-6.308 5.2416,-10.7533 6.5778,-13.3229 l 16.7788,-31.7715 h 7.5926 l 1.8117,32.2727 c 0.1797,3.6873 0.3339,8.1453 0.4623,13.3614 0.4499,-1.2977 1.2591,-3.212 2.4154,-5.7685 1.8371,-4.0856 3.1992,-7.0019 4.0856,-8.7619 l 15.6481,-31.1037 h 7.5285 l -28.0587,55.1925 h -7.901 l -1.7731,-33.429 c -0.2055,-2.8522 -0.3597,-6.385 -0.5012,-10.5862 -1.5287,3.4945 -2.8134,6.2053 -3.8412,8.1453 l -19.0528,35.8699 z m 90.3561,-13.5669 6.6291,0.6168 c -0.9635,3.2888 -3.1604,6.3978 -6.5909,9.3657 -3.4302,2.9548 -7.5285,4.4322 -12.2819,4.4322 -2.9679,0 -5.6914,-0.6808 -8.1581,-2.0426 -2.4795,-1.3748 -4.3682,-3.3531 -5.6659,-5.9613 -1.2975,-2.6078 -1.9398,-5.5757 -1.9398,-8.9033 0,-4.3552 1.0148,-8.5819 3.032,-12.6802 2.0298,-4.0984 4.6508,-7.1433 7.8624,-9.1347 3.225,-1.9913 6.7065,-2.9806 10.4579,-2.9806 4.7792,0 8.5949,1.4777 11.4471,4.4325 2.8522,2.9421 4.2781,6.9761 4.2781,12.0765 0,1.9528 -0.1797,3.9441 -0.5267,5.9998 h -29.5362 c -0.1029,0.7838 -0.1542,1.4774 -0.1542,2.107 0,3.7514 0.8609,6.6036 2.5951,8.5822 1.7218,1.9655 3.8416,2.9548 6.3338,2.9548 2.3383,0 4.6508,-0.758 6.9247,-2.287 2.2612,-1.516 4.0343,-3.7128 5.2935,-6.5778 z m -19.901,-10.021 h 22.5346 c 0.025,-0.6937 0.039,-1.1948 0.039,-1.503 0,-3.3919 -0.8609,-5.9998 -2.5696,-7.8114 -1.7215,-1.8113 -3.9184,-2.7108 -6.6164,-2.7108 -2.9293,0 -5.5888,1.0021 -7.9911,2.9934 -2.4154,2.0044 -4.2013,5.0105 -5.3961,9.0318 z m 55.565,23.5879 11.5628,-55.1925 h 16.6374 c 3.9827,0 7.0274,0.2826 9.1474,0.8608 3.0062,0.7835 5.5758,2.1711 7.7083,4.1624 2.1328,2.0044 3.7386,4.4839 4.8178,7.4773 1.0794,2.9806 1.6188,6.3337 1.6188,10.0468 0,4.445 -0.6681,8.492 -2.0171,12.1408 -1.336,3.6615 -3.096,6.8732 -5.2674,9.6483 -2.171,2.7623 -4.4452,4.9334 -6.8218,6.5137 -2.3769,1.5673 -5.1775,2.7235 -8.4152,3.4815 -2.4667,0.5783 -5.4859,0.8609 -9.0831,0.8609 z m 8.6335,-6.2439 h 8.7619 c 3.9441,0 7.4645,-0.3597 10.535,-1.0791 1.9142,-0.4496 3.5458,-1.1177 4.9076,-2.0041 1.7858,-1.1308 3.4174,-2.6209 4.8694,-4.4839 1.9142,-2.4667 3.4429,-5.2673 4.5864,-8.4279 1.1435,-3.1476 1.7215,-6.7448 1.7215,-10.766 0,-4.4711 -0.7835,-7.9013 -2.338,-10.3037 -1.5676,-2.4026 -3.5589,-3.9957 -5.9743,-4.7792 -1.7856,-0.5782 -4.5607,-0.8609 -8.3379,-0.8609 h -9.7897 z m 75.6587,-7.323 6.6291,0.6168 c -0.9635,3.2888 -3.1603,6.3978 -6.5908,9.3657 -3.4302,2.9548 -7.5286,4.4322 -12.282,4.4322 -2.9679,0 -5.6914,-0.6808 -8.1581,-2.0426 -2.4795,-1.3748 -4.3682,-3.3531 -5.6659,-5.9613 -1.2974,-2.6078 -1.9397,-5.5757 -1.9397,-8.9033 0,-4.3552 1.0148,-8.5819 3.0319,-12.6802 2.0299,-4.0984 4.6508,-7.1433 7.8625,-9.1347 3.2249,-1.9913 6.7065,-2.9806 10.4578,-2.9806 4.7792,0 8.595,1.4777 11.4472,4.4325 2.8522,2.9421 4.278,6.9761 4.278,12.0765 0,1.9528 -0.1797,3.9441 -0.5267,5.9998 h -29.5361 c -0.1029,0.7838 -0.1542,1.4774 -0.1542,2.107 0,3.7514 0.8609,6.6036 2.5951,8.5822 1.7218,1.9655 3.8415,2.9548 6.3337,2.9548 2.3383,0 4.6508,-0.758 6.9248,-2.287 2.2612,-1.516 4.0343,-3.7128 5.2934,-6.5778 z m -19.9009,-10.021 h 22.5346 c 0.025,-0.6937 0.038,-1.1948 0.038,-1.503 0,-3.3919 -0.8609,-5.9998 -2.5696,-7.8114 -1.7215,-1.8113 -3.9183,-2.7108 -6.6163,-2.7108 -2.9294,0 -5.5888,1.0021 -7.9912,2.9934 -2.4154,2.0044 -4.2012,5.0105 -5.396,9.0318 z m 32.8765,23.5879 11.5242,-55.1925 h 6.7706 l -11.5243,55.1925 z m 27.4164,-47.484 1.6189,-7.7085 h 6.7705 l -1.6188,7.7085 z m -9.9439,47.484 8.3763,-40.0068 h 6.7709 l -8.3767,40.0068 z m 27.3135,0 -6.5651,-40.0068 h 6.6294 l 3.4302,22.0204 c 0.3853,2.4154 0.8479,6.3468 1.4003,11.7938 1.3105,-2.8391 2.9807,-6.0896 5.0106,-9.7511 l 13.3613,-24.0631 h 7.1944 l -22.8813,40.0068 z m 57.9036,-13.5669 6.6291,0.6168 c -0.9635,3.2888 -3.1604,6.3978 -6.5909,9.3657 -3.4302,2.9548 -7.5285,4.4322 -12.2819,4.4322 -2.9679,0 -5.6914,-0.6808 -8.1581,-2.0426 -2.4795,-1.3748 -4.3682,-3.3531 -5.6659,-5.9613 -1.2974,-2.6078 -1.9398,-5.5757 -1.9398,-8.9033 0,-4.3552 1.0148,-8.5819 3.032,-12.6802 2.0299,-4.0984 4.6508,-7.1433 7.8624,-9.1347 3.225,-1.9913 6.7065,-2.9806 10.4579,-2.9806 4.7792,0 8.5949,1.4777 11.4471,4.4325 2.8523,2.9421 4.2781,6.9761 4.2781,12.0765 0,1.9528 -0.1797,3.9441 -0.5267,5.9998 h -29.5362 c -0.1028,0.7838 -0.1542,1.4774 -0.1542,2.107 0,3.7514 0.8609,6.6036 2.5952,8.5822 1.7217,1.9655 3.8415,2.9548 6.3337,2.9548 2.3383,0 4.6508,-0.758 6.9248,-2.287 2.2611,-1.516 4.0342,-3.7128 5.2934,-6.5778 z m -19.9009,-10.021 h 22.5345 c 0.025,-0.6937 0.039,-1.1948 0.039,-1.503 0,-3.3919 -0.8609,-5.9998 -2.5696,-7.8114 -1.7215,-1.8113 -3.9183,-2.7108 -6.6164,-2.7108 -2.9293,0 -5.5888,1.0021 -7.9911,2.9934 -2.4154,2.0044 -4.2012,5.0105 -5.396,9.0318 z m 33.3776,23.5879 8.3251,-40.0068 h 6.0769 l -1.7218,8.1836 c 2.0815,-3.0704 4.0984,-5.3444 6.077,-6.8218 1.9658,-1.4774 3.9826,-2.2099 6.0383,-2.2099 1.349,0 3.0192,0.4884 4.9978,1.4647 l -2.7751,6.3209 c -1.1821,-0.8736 -2.4798,-1.3104 -3.8801,-1.3104 -2.3896,0 -4.8433,1.3362 -7.3616,3.9954 -2.518,2.6595 -4.5093,7.4387 -5.9609,14.3507 l -3.3404,16.0336 z m 24.6541,0 1.6188,-7.7085 h 7.7086 l -1.6574,7.7085 z"
     style="fill:#6e6f70;fill-rule:evenodd"
     id="path4" />
  <path
     d="m 525.5586,197.14449 c 0.3305,-0.2588 0.9913,-0.7693 1.3198,-1.0296 19.0401,-0.1885 38.09,-0.0601 57.1402,-0.0802 0.3402,0.3305 1.0313,0.9913 1.37,1.3099 -5.4501,14.0006 -11.4792,27.7707 -16.7989,41.8314 -2.1209,5.2498 -3.0606,11.3888 -1.0815,16.8188 4.0318,7.0404 12.951,8.1601 20.28,8.7608 44.0005,0.0901 88.001,-0.01 132.0015,0.0502 -0.3204,2.0591 -0.4505,4.1899 -1.2314,6.1492 -3.7497,9.54 -7.5694,19.0598 -11.5192,28.5298 -1.3699,3.1306 -2.1693,6.5696 -4.2301,9.3597 -2.2694,0.6007 -4.6508,0.2404 -6.9503,0.3306 -33.6693,-0.0301 -67.339,-0.0102 -101.0103,-0.0202 -21.3395,-0.14 -42.6906,0.3606 -64.0199,-0.3787 -10.3895,-1.6704 -21.8203,-3.9515 -29.0789,-12.2601 -6.8902,-8.17 -6.4698,-20.0512 -3.3509,-29.6813 2.0209,-8.4988 5.7002,-16.4486 8.881,-24.55 6.059,-15.0585 12.1498,-30.1102 18.2789,-45.1403 z m 30.9212,-76.739 c 0.659,-2.0509 1.9692,-3.7596 3.2388,-5.47 18.0505,0.2103 36.101,0.04 54.1599,0.0901 1.37,0.04 2.67,0.4105 3.8897,1.1296 -5.5984,14.77 -11.5092,29.4495 -17.6499,44.0108 -19.7793,-0.0502 -39.5501,0.0901 -59.3294,-0.0703 4.6907,-13.4297 10.6798,-26.3705 15.6909,-39.6902 z m -478.9599,-4.6207 c 52.7797,0.03 105.5494,-0.0199 158.3288,0.0201 5.3201,0.2404 10.6597,0.0901 15.9713,0.5207 9.2398,1.9006 19.499,3.6493 25.9886,11.2102 6.1707,7.1305 5.9706,17.0793 5.1897,25.9203 -0.3087,2.4695 -1.3884,4.7389 -2.6584,6.8482 -73.1511,-0.3087 -146.3108,-0.0184 -219.4602,-0.1383 0.2202,-1.8108 -0.0502,-3.7197 0.6491,-5.44 5.4014,-12.9509 10.3008,-26.1105 15.9911,-38.9412 z m 240.1892,0.1703 c 19.7107,-0.3387 39.4299,-0.1301 59.1508,-0.1085 -5.8504,14.7798 -11.641,29.6195 -17.8101,44.2692 -19.3904,0.1 -38.7708,0.03 -58.1595,0.04 0.0983,-3.5609 1.919,-6.6598 3.2487,-9.8604 4.4706,-11.4607 9.3901,-22.7596 13.5701,-34.3403 z m 163.6305,-0.3206 c 19.3303,0.5207 38.7289,-0.2684 58.0492,0.4006 -0.01,0.5808 -0.03,1.7305 -0.0501,2.3113 -5.5701,14.0088 -11.1101,28.0491 -17.1091,41.8896 -19.4306,-0.1902 -38.861,0.0201 -58.2897,-0.1103 0.2084,-5.2197 3.0986,-9.7002 4.7892,-14.521 4.2202,-9.9788 7.4707,-20.4084 12.6105,-29.9702 z m -265.7705,59.3311 c -0.3906,-3.2706 -3.6096,-6.7799 -1.8306,-9.9204 20.3817,-0.0601 40.7617,0.04 61.1314,-0.0501 1.7087,-0.1602 3.3591,0.2803 4.6891,1.4 -1.2699,2.8001 -2.4897,5.6302 -3.5493,8.5204 -20.1515,0.0703 -40.2911,-0.0301 -60.4406,0.0501 z m -158.0003,-9.1896 c 19.3504,0.0984 38.7009,-0.0901 58.0513,0.0901 -0.1803,3.3693 -2.0509,6.1892 -3.5411,9.0995 -19.3186,-0.0901 -38.6291,0.0301 -57.9393,-0.0601 -0.1301,-3.4492 1.8006,-6.2892 3.4291,-9.1295 z m 237.1504,8.4889 c 0.6693,-2.8987 1.9993,-5.5803 2.9404,-8.3905 19.4103,-0.1985 38.8191,0.0119 58.2296,-0.0984 -0.5607,2.8902 -0.2602,6.4797 -2.9302,8.4186 -19.4006,0.3104 -38.8292,0.1602 -58.2398,0.0703 z m 166.9995,-8.4387 c 19.3105,-0.0301 38.6308,-0.1001 57.9509,0.0399 -0.2701,3.3492 -2.1209,6.1892 -3.5708,9.1095 -18.4393,-0.1001 -36.8903,-0.01 -55.3294,-0.0301 -1.3,-0.07 -2.5299,-0.3804 -3.7012,-0.9312 1.7603,-2.5378 1.9105,-6.6078 4.6505,-8.1881 z m 76.8407,-0.0902 c 19.4105,0.1202 38.8293,0.04 58.2398,0.0485 0.1803,3.3307 -1.0497,6.361 -2.66,9.1911 -19.8009,-0.2203 -39.6202,0.2403 -59.4094,-0.2302 0.9896,-3.1105 2.0291,-6.2595 3.8296,-9.0094 z m -247.3395,14.5596 c 19.8493,-0.3605 39.6986,-0.0601 59.5496,-0.1604 -0.4504,3.5895 -1.9406,6.9301 -3.6711,10.0607 -19.3986,-0.0601 -38.789,0 -58.1896,-0.04 0.1202,-3.4208 1.4802,-6.5897 2.3111,-9.8603 z m 164.1594,-0.1803 c 15.4891,0.0701 30.9696,-0.0102 46.4601,0.0199 4.1902,0.0601 8.4405,-0.3702 12.5487,0.6792 -1.6886,3.1906 -2.3094,6.9202 -4.3801,9.8804 -19.6891,0.2605 -39.3984,0.0301 -59.0992,0.1103 0.701,-3.8498 2.2513,-7.4792 4.4705,-10.6898 z m -407.3505,10.0007 c 0.4606,-3.5813 1.8006,-6.9302 3.5711,-10.0508 18.0904,0.1703 36.1794,0.01 54.2699,0.0802 1.3699,0.11 2.7,0.4104 3.9999,0.8994 -0.8912,3.1805 -2.3697,6.1407 -3.7598,9.1313 -19.3604,-0.0502 -38.7207,0.07 -58.0811,-0.0601 z m 158.531,0.03 c 1.3598,-4.1601 5.3696,-6.8502 8.3902,-9.8606 17.6298,-0.3804 35.2897,0 52.928,-0.1803 1.9508,-0.1099 3.8914,0.2206 5.6721,1.0398 -1.3717,3.0705 -2.6317,6.2209 -4.5405,9.011 -20.8205,0.0202 -41.6294,0.0301 -62.4498,-0.01 z m 322.2694,-0.0102 c 1.0296,-3.4208 1.3502,-8.28 5.0596,-9.8903 15.9794,-0.2603 31.9708,-0.0301 47.9605,-0.1103 3.359,0.0402 6.8199,-0.4003 10.0389,0.8796 -1.0097,3.1504 -2.4897,6.1208 -3.7797,9.1613 -19.7592,-0.0403 -39.5201,0.0399 -59.2793,-0.0403 z M 43.52,199.39549 c 0.5891,-1.2099 1.34,-2.3193 1.999,-3.4909 18.1208,0.2803 36.2512,0.03 54.3699,0.1202 2.2213,-0.0386 3.7114,2.3613 6.0007,2.1209 23.9794,-0.0502 47.9605,0.1102 71.9399,-0.1001 5.0995,0.2203 9.9006,-2.0891 15.0001,-2.0109 24.2997,-0.0198 48.6094,-0.01 72.9193,-0.01 -0.6392,5.1094 -4.2602,9.1111 -6.9302,13.3112 -9.5901,13.9088 -23.9193,24.7088 -40.3494,28.9888 -3.2406,0.7109 -6.3596,1.9108 -9.6503,2.3698 -6.3493,0.3302 -12.5303,2.2711 -18.9199,2.1208 -34.8593,0.2002 -69.7203,0.1301 -104.5797,0.0601 -9.3897,21.9501 -17.9302,44.2693 -27.1496,66.2894 -19.3907,-0.04 -38.7794,0.0402 -58.1698,-0.04 0.1704,-0.8694 0.5091,-2.6 0.6792,-3.4693 14.1809,-35.46 28.7002,-70.7899 42.8408,-106.2601 z m 242.1298,-3.3608 c 73.9389,-0.01 147.8894,-0.0198 221.8382,0 -0.2083,3.471 -2.169,6.4514 -3.3389,9.6503 -14.0105,34.7508 -27.9592,69.5199 -42.1501,104.1908 -19.5706,0.1386 -39.1396,-0.0499 -58.7001,0.0802 -0.1902,-0.4306 -0.549,-1.29 -0.7293,-1.7305 6.8986,-14.4712 12.2601,-29.6496 18.3892,-44.4694 3.8797,-9.8906 8.06,-19.6608 11.8513,-29.5812 -34.4205,-0.0301 -68.8311,0.01 -103.2514,-0.0202 -5.2497,10.9902 -9.2497,22.5511 -13.9288,33.7916 -4.1417,10.5094 -8.5505,20.9089 -12.6604,31.4283 -1.4001,3.3709 -2.6099,6.8417 -4.5706,9.9306 -19.1702,-0.3504 -38.3505,-0.0301 -57.5289,-0.1602 0.1786,-1.7606 0.4088,-3.5393 1.1699,-5.1596 14.5794,-35.9592 29.0988,-71.9498 43.6099,-107.9507 z"
     style="fill:#001862;fill-rule:evenodd"
     id="path6" />
  <path
     d="m 1579.5743,197.10619 c 1.3016,-1.5503 3.4208,-0.9813 5.2231,-1.1115 18.0385,0.1401 36.0774,-0.1485 54.1162,0.1602 -14.6514,36.6698 -29.6362,73.2515 -44.2542,109.9397 -0.6174,1.4718 -1.7688,2.6297 -2.6532,3.9198 -15.3856,-0.2288 -30.771,-0.0283 -46.1566,-0.0986 -3.6544,-0.0899 -7.3757,0.4288 -10.9301,-0.6206 0.3005,-3.3392 1.9525,-6.3096 3.2207,-9.3699 13.5998,-34.3505 27.8173,-68.4706 41.4341,-102.8191 z m -784.8562,-69.1798 c 1.9208,-4.3404 3.0005,-9.1012 5.9106,-12.9609 l 157.2794,0.0902 c 5.6974,0.003 13.7146,0.7877 19.3998,1.9434 6.6356,1.3485 13.3676,2.903 18.9003,6.9857 10.7041,7.0044 8.5736,20.4296 8.3403,31.4802 0.03,1.9808 -1.1097,4.9212 -3.4809,4.731 -72.7192,-0.0402 -145.4482,-0.0402 -218.179,-0.0102 -0.2701,-4.6006 2.3397,-8.5003 3.8197,-12.6604 2.4313,-6.6299 5.29,-13.0895 8.0098,-19.599 z m 329.1299,-12.8908 c 20.6702,0 41.3305,0 62.0008,0 16.6748,0.261 34.9211,-0.2963 49.8693,8.1099 11.6297,6.2969 12.6703,25.5166 8.6307,36.8801 -73.1696,0.3388 -146.3508,0.0601 -219.5306,0.1404 0.1001,-2.3313 0.3606,-4.741 1.9409,-6.5798 4.4504,-7.7012 11.3888,-13.4014 17.5998,-19.6107 24.813,-18.8986 50.5834,-17.7647 79.4891,-18.9399 z m 232.0007,0 c 51.3394,-0.0202 102.6791,0.0399 154.0236,-0.0301 1.4516,-0.2404 2.6198,0.2302 3.5042,1.4301 -0.3336,3.4092 -2.3862,6.2895 -3.5544,9.43 -3.7879,9.9088 -7.9098,19.6991 -11.8644,29.5495 -1.1097,1.6602 -1.3901,4.9411 -3.9498,4.7509 -76.3803,-0.0102 -152.7604,0.0198 -229.1391,-0.0102 0.04,-4.0899 2.8202,-7.2604 4.7894,-10.6113 6.4973,-9.3574 13.1598,-16.3771 23.6404,-21.67 22.1839,-11.0307 38.1313,-12.5878 62.5501,-12.8389 z m 171.2446,13.8503 c 2.2193,-4.6406 3.204,-9.9306 6.5914,-13.9405 70.0356,0.2004 140.105,0.04 210.1573,0.0902 3.638,0.1403 7.5761,-0.6707 10.9468,1.1797 -3.9883,9.6804 -8.1932,19.2805 -11.9815,29.0305 -2.2527,4.9995 -3.5543,10.4196 -6.5579,15.0503 -73.8071,-0.3606 -147.6142,0.0799 -221.421,-0.2104 3.5376,-10.6095 8.2267,-20.7904 12.2649,-31.1998 z m -751.0946,44.8498 c 1.3099,-2.9804 2.1093,-6.5713 4.8509,-8.6105 18.7396,-0.1001 37.5092,-0.2603 56.2488,0.0703 1.2798,3.5492 -1.0798,6.95 -3.1604,9.64 -17.7001,-0.07 -35.4101,-0.0399 -53.1184,-0.0102 -1.7104,0.1503 -3.2706,-0.5306 -4.8209,-1.0896 z m 159.9092,-8.6505 c 21.4812,-0.2103 42.9709,0.1202 64.4505,-0.1502 0.9595,3.5711 -0.8195,6.7901 -2.2797,9.9204 -19.7107,-0.18 -39.4197,0.0802 -59.1307,-0.1301 -0.3903,-0.1602 -1.1695,-0.5006 -1.5585,-0.669 -0.4705,-2.8803 -3.4809,-6.2912 -1.4816,-8.9711 z m 83.8207,1.29 c 1.9007,-1.9108 4.6693,-1.2801 7.0903,-1.3702 17.6803,0.0502 35.3602,0.0402 53.0402,0.0102 2.7199,0.0901 5.7385,-0.5508 8.1099,1.2197 -3.3808,2.6198 -6.3411,5.8706 -10.0406,8.0099 -20.3799,0.1202 -40.78,0.1502 -61.1699,-0.0201 0.669,-2.7182 1.5803,-5.41 2.9701,-7.8495 z m 156.2998,-0.4889 c 2.7601,-1.3017 5.859,-0.811 8.8192,-0.8711 16.0013,0.03 32.0009,0.0198 48.0005,0.01 2.9902,0.0802 6.1707,-0.489 8.9608,0.9411 -0.3602,3.3392 -1.5202,6.4996 -3.7411,9.0496 -20.1697,-0.1304 -40.3495,-0.1604 -60.5092,0.0199 -0.921,-2.9702 -1.2099,-6.0707 -1.5302,-9.1494 z m 415.861,0.6389 c 1.6855,-2.1793 4.5555,-1.3799 6.9417,-1.5202 17.3379,0.2304 34.7091,-0.3286 52.0305,0.2803 -0.8345,3.2607 -1.1182,7.4909 -4.0884,9.5202 -14.3008,0.3002 -28.6183,0.03 -42.9358,0.1301 -5.0397,-0.1202 -10.0959,0.3005 -15.1018,-0.3104 0.9175,-2.73 1.6185,-5.6203 3.1538,-8.1 z m -333.6704,8.4005 c -0.2702,-3.4611 1.4885,-6.4296 3.3191,-9.1996 20.6302,0.1483 41.2707,0.0499 61.9109,0.0584 0.2713,4.3398 0.7126,5.1129 6.6997,7.761 -1.58,1.1299 -3.4209,1.5103 -5.2997,1.3901 -22.2105,-0.0201 -44.4211,0 -66.63,-0.01 z m -484.7502,5.2597 c 19.5806,0.0501 39.1598,-0.0902 58.7404,0.0601 -1.0296,3.3508 -1.9508,6.7498 -3.8999,9.7202 -19.3703,-0.1102 -38.7409,-0.0501 -58.1111,-0.0402 0.2602,-3.4909 1.7906,-6.6297 3.2706,-9.7401 z m 154.3992,9.6803 c 2.5897,-3.6397 5.7702,-7.0305 9.4297,-9.5803 19.3405,-0.2202 38.7108,-0.07 58.0711,-0.0601 -0.05,3.5093 -2.0809,6.4698 -3.3208,9.6404 -21.3894,0.07 -42.789,0.0799 -64.18,0 z m 249.5304,-9.6404 c 19.9094,-0.1301 39.8404,-0.1202 59.7699,0.0102 -1.0218,2.6414 -2.7983,6.6646 -4.7208,10.0406 -19.1585,-0.2304 -38.3184,-0.0601 -57.4787,-0.0802 0.2087,-3.3707 -0.5606,-7.5509 2.4296,-9.9706 z m 78.5818,0.019 c 27.4002,-0.2302 53.4583,-0.019 80.8585,-0.0989 2.9002,0.07 5.8388,-0.2404 8.729,0.2202 6.2609,2.5597 12.3101,5.6603 18.6594,8.0399 0.032,0.7991 0.1604,1.5903 0.3807,2.3695 -36.6701,-0.0501 -72.5148,6e-4 -109.1846,-0.0195 -0.69,-3.4991 -0.358,-7.837 0.557,-10.5112 z m 329.8351,0.001 c 19.891,-0.1602 39.7653,-0.1302 59.6563,-0.0202 -2.1518,6.7884 -2.8313,7.3837 -4.3053,9.9006 -19.4406,0.0601 -38.8976,0.1202 -58.3549,-0.04 0.8178,-3.3409 2.5699,-6.4012 3.0039,-9.8404 z m -572.2758,0.8393 c 2.1594,-1.41 4.8492,-0.8294 7.289,-0.9595 17.6697,0.2301 35.3599,-0.3104 53.03,0.2704 -1.1498,3.369 -2.3497,7.2405 -4.9295,9.6701 -19.3303,0.2404 -38.6906,0.0601 -58.0294,0.0901 0.048,-3.2207 1.2381,-6.2311 2.6399,-9.0711 z m -246.0413,15.05 c 17.81,0.0402 35.6102,0.03 53.4203,0 2.8502,-0.2804 5.0797,2.141 7.8999,2.001 24.021,0 48.0503,0.1301 72.0697,-0.0902 4.4005,0.14 8.5005,-1.9409 12.901,-1.9409 23.3601,0.0902 46.7289,0.0403 70.0991,0.0301 1.6705,-0.01 3.3007,0.4306 4.9295,0.8512 -5.3484,8.8793 -10.9387,17.8084 -18.4595,25.0288 -18.2013,15.0335 -31.3954,18.0422 -54.4499,20.7505 -36.1494,0.2803 -72.3104,0.1403 -108.4595,0.0901 -8.7106,20.7105 -16.8106,41.6795 -25.4494,62.4098 -1.0012,1.7405 -1.6705,4.6608 -4.1301,4.6307 -17.011,0.0683 -34.0302,-0.04 -51.0409,0.0499 -1.7405,0.1587 -3.3891,-0.3402 -4.8793,-1.1614 0.5406,-2.0491 1.1296,-4.1 2.0392,-6.019 13.0408,-31.7305 25.441,-63.7198 38.5804,-95.4 1.4703,-3.8197 2.8602,-7.6794 4.9295,-11.2306 z m 240.1608,-0.1001 c 19.7492,0.0502 39.5098,-0.1684 59.2492,0.1103 -3.6995,10.7713 -8.3602,21.1909 -12.4401,31.8206 -2.3298,6.2291 -5.7104,12.2199 -6.0994,18.9898 -0.3404,4.5289 -0.3103,10.1492 3.7897,13.0893 5.5502,3.4208 12.1799,4.9813 18.6897,4.7409 15.6909,-0.0901 31.39,0.1803 47.0809,-0.1502 8.5989,-1.2699 17.9886,-3.1805 23.9893,-10.0806 5.8005,-5.1497 10.0207,-11.7496 12.9209,-18.9099 4.8793,-11.5891 9.5099,-23.2903 14.169,-34.9795 0.6891,-1.6705 1.7203,-3.1604 2.6299,-4.7208 19.3604,0.2403 38.7207,-0.1202 58.0794,0.2004 -0.6392,4.2001 -2.7082,7.9497 -4.3087,11.8309 -7.3607,17.68 -14.2206,35.5686 -21.7698,53.1786 -8.981,19.2203 -24.8405,36.0708 -45.3407,42.8008 -18.7268,5.5764 -32.4737,5.6376 -51.4497,5.9605 -24.66,0.0102 -49.3302,-0.0117 -73.9905,0.0102 -15.8814,-0.3215 -35.4886,-1.2456 -47.7601,-12.7406 -13.0524,-15.0322 -4.3531,-35.1828 2.1308,-51.2096 6.8701,-16.6201 13.5199,-33.3306 20.4302,-49.9411 z m 249.3385,0 c 41.2705,0.07 82.5611,-0.1803 123.8199,0.1202 20.3701,8.951 40.65,18.1706 61.0316,27.15 4.6188,2.1007 10.1291,3.7612 12.799,8.4702 7.4804,11.1067 0.017,36.5836 -7.6895,46.6407 -5.9505,8.4186 -14.2407,14.7795 -22.5309,20.7286 -9.4779,6.4896 -26.9385,11.5081 -38.579,10.7898 -60.3105,-0.0885 -120.621,0.0918 -180.9297,-0.0885 -1.7005,-1.6001 -0.4507,-4.1499 0.08,-6.0006 5.6202,-12.9909 10.1891,-26.4592 16.3602,-39.1896 51.4896,0.3002 102.9994,0.04 154.4992,0.1301 5.3597,1.1399 8.0099,-8.5305 2.9203,-10.1908 -35.7605,-15.5191 -71.4995,-31.1199 -107.2798,-46.5803 -5.7906,-2.2896 -12.6805,-5.5602 -14.5012,-11.9798 z"
     style="fill:#9e0000;fill-rule:evenodd"
     id="path8" />
</svg>
